PathFileType	4	(X/Y/Z)	/Users/itak/Documents/Research/Walk-IL/dataset/trc/00027_00004.trc
DataRate	CameraRate	NumFrames	NumMarkers	Units	OrigDataRate	OrigDataStartFrame	OrigNumFrames
100.000000	100.000000	4	53	mm	100.000000	536	613
Frame#	Time	RPSI			LPSI			L3			STRN			T10			C7			CLAV			RBAK			LBAK			LSHO			LUPA			LAEL			LAOL			LWTS			LWPS			LFRA			LIFD			LHPS			LHTS			RSHO			RUPA			RAEL			RAOL			RWTS			RWPS			RFRA			RIFD			RHTS			RHPS			RBHD			LFHD			RFHD			LBHD			LHIP			RHIP			RASI			LASI			LKNE			LTHI			LANK			LTIP			LTOE			LMT1			LMT5			LHEE			RKNE			RTHI			RANK			RTIP			RTOE			RMT1			RMT5			RHEE			
		X1	Y1	Z1	X2	Y2	Z2	X3	Y3	Z3	X4	Y4	Z4	X5	Y5	Z5	X6	Y6	Z6	X7	Y7	Z7	X8	Y8	Z8	X9	Y9	Z9	X10	Y10	Z10	X11	Y11	Z11	X12	Y12	Z12	X13	Y13	Z13	X14	Y14	Z14	X15	Y15	Z15	X16	Y16	Z16	X17	Y17	Z17	X18	Y18	Z18	X19	Y19	Z19	X20	Y20	Z20	X21	Y21	Z21	X22	Y22	Z22	X23	Y23	Z23	X24	Y24	Z24	X25	Y25	Z25	X26	Y26	Z26	X27	Y27	Z27	X28	Y28	Z28	X29	Y29	Z29	X30	Y30	Z30	X31	Y31	Z31	X32	Y32	Z32	X33	Y33	Z33	X34	Y34	Z34	X35	Y35	Z35	X36	Y36	Z36	X37	Y37	Z37	X38	Y38	Z38	X39	Y39	Z39	X40	Y40	Z40	X41	Y41	Z41	X42	Y42	Z42	X43	Y43	Z43	X44	Y44	Z44	X45	Y45	Z45	X46	Y46	Z46	X47	Y47	Z47	X48	Y48	Z48	X49	Y49	Z49	X50	Y50	Z50	X51	Y51	Z51	X52	Y52	Z52	X53	Y53	Z53	

537	5.36	-374.7369689941406	1074.800537109375	1041.38720703125	-365.3626403808594	1068.942260742188	877.11474609375	-377.6167297363281	1128.853759765625	951.1727905273438	-163.9880828857422	1328.136596679688	980.3700561523438	-408.0822448730469	1272.667236328125	952.409912109375	-368.3999633789062	1541.811889648438	956.36376953125	-209.4676208496094	1452.736694335938	976.361572265625	-425.5408325195312	1400.841186523438	1026.307006835938	-374.1336669921875	1505.1435546875	855.8806762695312	-263.5323181152344	1516.462646484375	795.0882568359375	-284.1111755371094	1394.687744140625	709.9718017578125	-279.7641906738281	1179.0732421875	674.5325317382812	-343.0029907226562	1161.677734375	757.6050415039062	-180.1945343017578	933.0028686523438	734.4358520507812	-249.4357299804688	913.1434936523438	682.3162841796875	-259.181640625	1064.578247070312	666.51708984375	-139.1598205566406	751.9425048828125	754.1701049804688	-209.1881103515625	826.075439453125	686.9199829101562	-149.1813049316406	842.36376953125	722.7525024414062	-311.2896118164062	1521.711547851562	1137.411743164062	-328.30419921875	1448.7568359375	1205.702758789062	-331.2117614746094	1176.618896484375	1232.25048828125	-323.7925109863281	1149.11962890625	1136.028076171875	-142.4499053955078	954.6484985351562	1198.992553710938	-199.7917175292969	923.5560913085938	1263.7041015625	-302.6727600097656	1102.39306640625	1248.098388671875	-77.87403106689453	778.5459594726562	1187.404418945312	-81.16676330566406	857.8605346679688	1213.183959960938	-133.9241180419922	837.9823608398438	1262.533081054688	-323.6794738769531	1725.938598632812	917.3320922851562	-139.3340759277344	1739.227294921875	1033.798095703125	-143.8659057617188	1742.126831054688	935.2108154296875	-311.2487182617188	1719.478149414062	1061.130004882812	-258.2634582519531	969.341064453125	770.6316528320312	-264.9937438964844	963.0621337890625	1147.150512695312	-159.1971130371094	998.349365234375	1079.971069335938	-149.7887115478516	1019.820739746094	845.3826904296875	-177.0814056396484	528.044921875	824.211669921875	-213.3645782470703	662.0658569335938	786.24951171875	-306.2115173339844	45.10980224609375	822.6856079101562	-269.8683471679688	292.6578979492188	805.3687133789062	-89.24541473388672	39.95194244384766	894.5262451171875	-149.2051391601562	49.22988510131836	908.5762939453125	-181.8304290771484	43.74597549438477	808.3894653320312	-377.173095703125	54.48666000366211	871.7971801757812	-249.3412780761719	528.5637817382812	1093.936279296875	-241.3536224365234	796.6895751953125	1140.630859375	-349.1482543945312	44.93087768554688	1037.977905273438	-272.6099548339844	404.5395202636719	1086.519653320312	-113.1328277587891	46.5229606628418	1037.11328125	-170.2728271484375	53.9102897644043	998.7919921875	-206.4137725830078	43.39516067504883	1089.327270507812	-395.1703491210938	48.44445037841797	983.9165649414062	
538	5.37	-372.6740417480469	1074.710083007812	1042.268310546875	-363.755126953125	1068.781127929688	877.9365234375	-375.8141479492188	1128.648559570312	951.9634399414062	-162.5568237304688	1328.10009765625	980.5817260742188	-406.683837890625	1272.370361328125	952.8019409179688	-367.2334899902344	1541.581909179688	956.363525390625	-208.1626892089844	1452.673706054688	976.4910888671875	-424.256591796875	1400.572265625	1026.369750976562	-372.9072570800781	1504.7998046875	855.8721313476562	-262.2972717285156	1516.185302734375	795.1328735351562	-282.4806213378906	1394.238525390625	710.099853515625	-277.3711242675781	1178.544311523438	675.0494384765625	-340.8321838378906	1161.139404296875	757.973876953125	-177.8365020751953	932.5372924804688	735.4412231445312	-246.9390106201172	912.62109375	683.1619262695312	-256.6844787597656	1064.047607421875	667.2144775390625	-136.8759307861328	751.4883422851562	755.45703125	-206.7139129638672	825.5762329101562	687.9419555664062	-146.8162078857422	841.880126953125	723.9271240234375	-310.2301330566406	1521.5908203125	1137.486450195312	-327.4046936035156	1448.61181640625	1205.714111328125	-331.3302001953125	1176.44189453125	1231.492065429688	-323.7023620605469	1149.166137695312	1135.2451171875	-144.8958740234375	952.3722534179688	1198.633544921875	-203.0047454833984	921.9109497070312	1262.961547851562	-303.5111389160156	1102.039428710938	1247.250854492188	-82.61149597167969	775.4921264648438	1187.041259765625	-84.96406555175781	854.7908325195312	1212.915771484375	-138.2388458251953	835.5978393554688	1262.032836914062	-322.9372253417969	1725.888305664062	917.5462036132812	-138.2421569824219	1739.321044921875	1033.419189453125	-143.0924072265625	1742.2412109375	934.859619140625	-310.058837890625	1719.33154296875	1061.309204101562	-256.8497314453125	969.1491088867188	771.2438354492188	-262.7332763671875	962.874267578125	1147.757446289062	-157.1504516601562	998.2606201171875	1080.277587890625	-148.2392272949219	1019.615295410156	845.6754760742188	-177.8802642822266	527.6796875	824.9769897460938	-213.2869262695312	661.8092041015625	786.96923828125	-306.2539978027344	44.8292121887207	822.3887329101562	-270.1730041503906	292.4504699707031	805.4462890625	-89.1676025390625	39.56654357910156	894.4797973632812	-149.15576171875	48.98479461669922	908.463134765625	-181.8414611816406	43.50328826904297	808.251708984375	-377.2262573242188	54.17036437988281	871.517578125	-249.6872253417969	528.2504272460938	1094.002807617188	-239.9422760009766	796.372314453125	1140.968872070312	-349.1878356933594	44.91994857788086	1037.994018554688	-273.1441650390625	404.5506896972656	1086.607299804688	-113.1527557373047	46.54724884033203	1037.082763671875	-170.2899322509766	53.91369247436523	998.7720947265625	-206.3785095214844	43.43804168701172	1089.307006835938	-395.1530456542969	48.39535522460938	983.9606323242188	
539	5.38	-370.6484680175781	1074.627807617188	1043.112548828125	-362.17822265625	1068.640380859375	878.7171020507812	-374.0368957519531	1128.468872070312	952.7205200195312	-161.1705474853516	1328.07666015625	980.7313842773438	-405.3344421386719	1272.090209960938	953.164794921875	-366.0784912109375	1541.374389648438	956.3182373046875	-206.8877410888672	1452.620849609375	976.5564575195312	-422.9998779296875	1400.32666015625	1026.39111328125	-371.7111206054688	1504.464721679688	855.8193359375	-261.0998229980469	1515.915649414062	795.1203002929688	-280.8824768066406	1393.794189453125	710.1840209960938	-274.9937744140625	1178.020263671875	675.5170288085938	-338.6807250976562	1160.610107421875	758.2857055664062	-175.5457305908203	932.047607421875	736.4024658203125	-244.5102233886719	912.0953369140625	683.9478149414062	-254.2196197509766	1063.5166015625	667.8589477539062	-134.7341156005859	750.9917602539062	756.70166015625	-204.3371887207031	825.06640625	688.9024047851562	-144.5474243164062	841.3580932617188	725.0579833984375	-309.1771545410156	1521.487426757812	1137.505249023438	-326.53173828125	1448.497192382812	1205.66357421875	-331.5717163085938	1176.303955078125	1230.666259765625	-323.6860046386719	1149.241821289062	1134.402709960938	-147.5697326660156	950.064453125	1198.345458984375	-206.5186004638672	920.294189453125	1262.2431640625	-304.49658203125	1101.72021484375	1246.3583984375	-87.67677307128906	772.419921875	1186.832153320312	-89.07709503173828	851.683837890625	1212.80419921875	-142.8726654052734	833.2120971679688	1261.640625	-322.2103881835938	1725.834594726562	917.6693115234375	-137.190673828125	1739.439819335938	1032.970581054688	-142.3344879150391	1742.372924804688	934.4431762695312	-308.8967590332031	1719.188354492188	1061.404541015625	-255.4781036376953	969.001708984375	771.7769165039062	-260.5006408691406	962.684814453125	1148.30419921875	-155.1418304443359	998.1710815429688	1080.521850585938	-146.7329254150391	1019.435363769531	845.91552734375	-178.8180999755859	527.334228515625	825.6237182617188	-213.2372283935547	661.586181640625	787.5867919921875	-306.4051208496094	44.53314590454102	822.022705078125	-270.6393737792969	292.2744750976562	805.4197387695312	-89.25339508056641	39.39335250854492	894.4558715820312	-149.2726440429688	48.87546920776367	908.3416748046875	-181.9425354003906	43.29500198364258	808.09326171875	-377.3898620605469	53.84154510498047	871.1514282226562	-249.9007873535156	527.9225463867188	1094.0224609375	-238.5059356689453	796.0643310546875	1141.275512695312	-349.220947265625	44.91675567626953	1038.006469726562	-273.5384216308594	404.5516357421875	1086.657104492188	-113.1701431274414	46.57231903076172	1037.049926757812	-170.3067779541016	53.91410827636719	998.75146484375	-206.3618774414062	43.47037506103516	1089.2783203125	-395.1348266601562	48.35955810546875	984.002197265625	
540	5.39	-368.6737976074219	1074.557250976562	1043.902099609375	-360.6277770996094	1068.522827148438	879.4390869140625	-372.2914428710938	1128.316284179688	953.4278564453125	-159.8202209472656	1328.072631835938	980.82421875	-404.0206298828125	1271.826904296875	953.4912109375	-364.94091796875	1541.188720703125	956.2299194335938	-205.648193359375	1452.578491210938	976.5685424804688	-421.7666625976562	1400.104736328125	1026.380249023438	-370.5455017089844	1504.138061523438	855.7330322265625	-259.9485473632812	1515.65478515625	795.0518798828125	-279.3287048339844	1393.359375	710.2288818359375	-272.6517639160156	1177.505126953125	675.9371948242188	-336.5610656738281	1160.09130859375	758.5455322265625	-173.3249816894531	931.5451049804688	737.318115234375	-242.1529083251953	911.5736694335938	684.6738891601562	-251.7994537353516	1062.9921875	668.4525756835938	-132.7211303710938	750.4645385742188	757.8985595703125	-202.0538330078125	824.5498657226562	689.8048706054688	-142.3722229003906	840.8113403320312	726.142578125	-308.1257629394531	1521.408081054688	1137.47802734375	-325.6784973144531	1448.418334960938	1205.563232421875	-331.913818359375	1176.20849609375	1229.791381835938	-323.7294921875	1149.35009765625	1133.515747070312	-150.4768981933594	947.732177734375	1198.1259765625	-210.3090362548828	918.7179565429688	1261.556762695312	-305.6131896972656	1101.445922851562	1245.432983398438	-93.06840515136719	769.33251953125	1186.766235351562	-93.50218963623047	848.544921875	1212.830322265625	-147.8157348632812	830.8292236328125	1261.343505859375	-321.5018615722656	1725.774047851562	917.7081298828125	-136.1749877929688	1739.579711914062	1032.452392578125	-141.594482421875	1742.519165039062	933.9581298828125	-307.7511291503906	1719.055419921875	1061.424438476562	-254.1459808349609	968.900634765625	772.2240600585938	-258.3132934570312	962.5106811523438	1148.783203125	-153.1766357421875	998.086669921875	1080.719360351562	-145.2560729980469	1019.281433105469	846.1142578125	-179.8848571777344	527.0090942382812	826.1414184570312	-213.2467498779297	661.3935546875	788.0908813476562	-306.5979919433594	44.25171661376953	821.6605224609375	-271.2548828125	292.1302795410156	805.34130859375	-89.41273498535156	39.34327697753906	894.4503784179688	-149.4634552001953	48.84067916870117	908.2243041992188	-182.0768890380859	43.11491394042969	807.9365844726562	-377.5958251953125	53.51942825317383	870.7788696289062	-249.9537200927734	527.5988159179688	1093.998413085938	-237.05078125	795.7767333984375	1141.56103515625	-349.2446594238281	44.92233657836914	1038.014038085938	-273.7738037109375	404.5434875488281	1086.667236328125	-113.1840362548828	46.59701538085938	1037.016479492188	-170.3215789794922	53.9133415222168	998.7316284179688	-206.3603668212891	43.49544143676758	1089.242431640625	-395.1204528808594	48.34129333496094	984.0361938476562	
